<?xml version="1.0" encoding="UTF-8"?>
<svg version="1.1" viewBox="740 323 568 527" xmlns="http://www.w3.org/2000/svg">
<path transform="translate(825,323)" d="m0 0h398l10 6 6 10 1 5v40h11v-14l5-5h27l4 4v16h7l7 3 5 5 2 4v17l-4 6-5 4-9 2h-3v72l-3 12-6 11-8 9-9 6-11 4-5 1-186 1-6 3-3 1-2 5-1 2-1 13h12l10 5 5 7 1 4v14l-10 20-2 9v23l5 37 7 43 3 29v31l-3 19-5 15-5 9-8 9-10 6-9 3-8 1h-10l-14-3-11-6-9-9-8-16-4-15-2-17v-21l2-25 7-47 5-33 1-9v-25l-3-11-9-18v-13l4-8 7-6 5-2h13l-2-13-4-7-8-4-185-1-14-4-11-7-7-7-6-10-4-11-1-7v-68l-12-3-7-6-2-5v-16l4-6 4-4 6-2h7v-16l5-4h26l5 5v15l11-1v-38l2-9 4-6 7-6z" fill="#453D35"/>
<path transform="translate(830,334)" d="m0 0h389l6 4 3 5v120l-3 4h-2l-3-5 4-4-1-4-3-3 1-4h2v-5h-2l-3-5 3-3h2l-3-5-3-2v-2l-4-2-3-3 7 8 4 5-3 3-4-2-11-10-7-5 5 5 4 5 8 7v4l-3 2-9-9-13-10 6 7 2 4 4 2 2 2-3 3-4-2-11-9-7-6 6 8 10 9 2 4-2 2-4-1-3-3v-2l-4-2-8-7-10-8 7 8 11 11-1 3-3 1-5-4v-2l-5-2-8-7h-1l7 8 3 2-1 4-3 1-5-4v-2l-5-2-3-3 2 4 3 4-4 3h-2v-2l-4-2v-2l-4-2-8-7 4 5 5 6-4 3-4-2-6-5v-2l-4-1 5 5-1 3-5 2-5-6-6 6h-2l-2 4-4 2-5 5h-2l-2 4-7 7-4 1v3l4-2 6-4 4-5 4 1 2 4-3 3-3 1v2l3 1 1-3 4-3 4 2 1 4h3v-2l4-3 4 1 2 4 5-3 4-2 4 4-1 3h-138v-2l8-6 13-12 7-8 4-4-11 9-18 18-5 3-5-5 4-4h2l2-4 5-4 7-8 4-5-17 16-4 2-2 4-5 1-4-3v-2l8-7 5-6-14 12h-3v3l-3 3-4-2-2-4 5-3 4-5 5-5 3-4h-2v2l-8 7-4 2h-1l-2 4-3 2-5-4 1-3 8-7 3-4-12 11-7 6-4-2-2-3 4-4 3 1-1-3 1-2-8 7h-3l1 2h-2v2l-4 1-4-4v-2l5-3 4-6h2v-2l-7 6-2 1-3 4-5-2-2-4 5-5-5 4-3 1-2 4-5 1v3l-4 2-4-3 2-4 5-5 2-3-7 5-4 4h-2l-2 4h-4l-3-4 8-8 3-2-1-1-7 7h-2v2l-4 1-4-3 2-4 4-5-7 6h-2l-2 4-4 1-3-2 1-4 4-2v-3l-5 4-4 2-2 4-5-1-2-4v-1l-4-1-3-3v-2l-3 1-5 5-4-3-1-3-4-1 1 4-4 3-5-4v-4l-3 1-5-4 6 7 5 4-1 4-3 1-4-3v-2h-4l6 7-2 4-5-2-2-2 4 5-2 5-4-2-1-1v-111l3-6 4-3z" fill="#985444"/>
<path transform="translate(999,609)" d="m0 0h7l5 5 4 5 8 8v2l4 2 7 8 4 3 1 4h2v2h2l1 4-5 3 2 6 4 2-2 4-2 2 8 10 5 5 1 7-4-2v-4l-3 1-3-3v-4l-5 1 3 5 4 5-2 2-2-1v2l-4-2-5-3 4 4v2l4 2 2 2v8l-4-1-2-4-3-1 1 3 9 9 2 29v17l-1 4v14l-3 12-6 9-10 11-6 4-5 4 1 4-4 1-5-4-1-3h-2l4 6 2 2-1 5-4-2-2-4-5-2-4-4h-2l5 5 8 9v2l4 2 2 3-6-2-9-7v-2h-2l-7-14-4-16-1-10v-28l4-33 8-50 3-24v-26l-2-11 5 2 3 3 2 1-3-5z" fill="#62584F"/>
<path transform="translate(807,425)" d="m0 0h1l1 41 3 9 5 6 8 4h399l6-3 3-1 2-4 4-9 1-42h11v69l-4 6-3 3-3 1h-434l-5-3-4-4-1-3v-69z" fill="none"/>
<path transform="translate(773,377)" d="m0 0h12l1 119 3 8 7 8 10 4h437l10-5 6-7 3-8 1-119h12v38h-2v2h2v9l-3 1-1 2h4v8l-4 2-1 3 5-3v10l-5 5 3-2h2v10h-4l-2 5-1 3 4-2 1-3h2v8l-2 3h-3l-2 6 4-2 3-2-1 9-4 1-2 4-2 5 3-3h3l1-3h1v7l-25 25h-3l-1 4-4 2h-6v-2l7-6-7 3h-4v4l-2 1h-6l1-4 4-4-7 4-2 1-3 3h-6l2-4 4-4-7 4h-3l-1 4h-7l1-4 4-3-5 2-4 2v2l-2 1h-7l1-4 4-3-5 2-4 2-1 3h-8l2-4 4-3-5 2-4 1-2-1 1 4-1 1h-7v-3l6-4-5 1-4 2-2-1 1 3-2 2h-6v-4l3-2h3v-2l-7 4h-3l-1 3-7 1v-4l5-2v-2l-7 4-4-1 1 3-2 2-6-1 2-4 3-3-6 4-5-2v-2l-8 4h-3l-1 4h-6v-4l4-3-5 2-4 1-1 4h-7l1-4 5-2v-2l-7 4h-3v3l-2 1h-6l1-4 2-3-4 3h-3l-3 4-5-1-2-3-4-1 2 4-2 2h-6l-2 4-4 2-2-4 6-7-7 6h-3l-1 4-9 9-3 6 1-1 4-2 2 3-1 4-4 2-1 6v1l4-4 3 4-1 4-17-1-2-15-4-9-8-8-10-4-187-1-11-4-9-6-7-10-4-12z" fill="#63584F"/>
<path transform="translate(1171,347)" d="m0 0 4 2-1 5h-4v2l11-3 1-3h28l7 1 1 3-2 2 3 2v12l-1 1h-8l-4-1-2 1h-7l-2-1v-3h-3l-2 4h-23v-2h2l-1-2h-10l-1 4v-3l-9 1v2h-215l-3-1h-36l-2 1h-52l-1-5-5 1 2 1v3l-6-1-1-2v-7l1-3 12-2v-3l-9 2v-4l5-1h24l4-1 2 4 10-3h170l98-1 1 2 4 1v-2h18z" fill="#B27A6B"/>
<path transform="translate(991,578)" d="m0 0h42 2 6l1 4 4 1 2 2-1 4-5 1 2 2 5-4h2l1 5-3 4h-60l-3-3v-11z" fill="#63584F"/>
<path transform="translate(1008,649)" d="m0 0h1v26l-4 52-3 32-1 34-2-1v-6l-4-1-1 4-2-12v-21l3-33 6-40 6-33z" fill="#B37B6C"/>
<path transform="translate(797,397)" d="m0 0h12v13l-1 3h-11z" fill="#645950"/>
<path transform="translate(1108,467)" d="m0 0 4 2 1 4h3v-2l4-3 4 1 2 4 5-3 4-2 4 4-1 3h-42v-1l6-1 5-5z" fill="#8D5547"/>
<path transform="translate(1240,397)" d="m0 0h11l1 1-1 15h-11z" fill="#645950"/>
<path transform="translate(1e3 580)" d="m0 0 7 1 1 3v10l-1 2h-9l-2-2v-10z" fill="#B37B6C"/>
<path transform="translate(1013,608)" d="m0 0 5 1 1 4 4 2 3 4-2 3h2v-2h2l4 6-2 3-4-2-10-11v-2l-4-2v-3z" fill="#645950"/>
<path transform="translate(1097,444)" d="m0 0h6l1 6-4-1-3 2 1 5-5-1-5 6-10 8-3 3-3-1 9-9h2l2-6 4-1 3-4 5-3z" fill="#433C34"/>
<path transform="translate(1065,438)" d="m0 0v3l-26 26-6 5h-3l2-4h2v-2h2l1-3 8-7 10-9 8-7z" fill="#433C34"/>
<path transform="translate(1048,440)" d="m0 0v3l-15 16-4 2v2l-8 7-5 2 2-4 9-9 8-7z" fill="#443D35"/>
<path transform="translate(1088,443)" d="m0 0 2 1-4 5-5 5-20 18-4-1 15-14 7-6h2l1-3h2l1-3z" fill="#433C34"/>
<path transform="translate(1033,441)" d="m0 0 2 1-8 7-3 4h-2l-2 4-15 14-5 2 3-5 5-5 13-12z" fill="#433C34"/>
<path transform="translate(1049,717)" d="m0 0h2v2l3 1 5 5 3 4v7l-7-6-5-4z" fill="#645950"/>
<path transform="translate(1072,445)" d="m0 0h2v2l-8 7-12 12-7 6-3-1 1-2h2v-2l8-7 15-14z" fill="#433C34"/>
<path transform="translate(1051,730)" d="m0 0 6 5 4 5 2 1 1 8-4-2-2-2v-3l-5-1-2-8z" fill="#645950"/>
<path transform="translate(1053,745)" d="m0 0 7 6 5 5v6h-2v-2l-5-2-5-5z" fill="#645950"/>
<path transform="translate(1271,505)" d="m0 0 1 2-7 11-13 9-3-1 8-7 4-1v-4l8-7z" fill="#645950"/>
<path transform="translate(1053,757)" d="m0 0 7 6v2l5 2v8l-6-5v-3l-3 1-3-4z" fill="#645950"/>
<path transform="translate(1047,703)" d="m0 0 5 3 7 7 1 5-5 1-3-6h-3l-2-8z" fill="#645950"/>
<path transform="translate(1052,769)" d="m0 0 2 1v2l4 1 1 4 5 2 1 3-3 3-4-3 1-4-4 1-2-2z" fill="#645950"/>
<path transform="translate(755,398)" d="m0 0h6v15h-6v-1h5l-1-7h-2v-2h-3l-1 6h-1v-8z" fill="#B17A6B"/>
<path transform="translate(753,402)" d="m0 0 4 1v2h2l1 7-6 1-2-4z" fill="#665A50"/>
<path transform="translate(1133,468)" d="m0 0 5 2 1 4-1 1h-14l3-2z" fill="#8A5648"/>
<path transform="translate(969,450)" d="m0 0 5 4-2 4-3 2-5-4 1-3z" fill="#975545"/>
<path transform="translate(1047,652)" d="m0 0 3 3 1 9-2-1v-2l-4-1-2-2 1-5z" fill="#63584F"/>
<path transform="translate(997,464)" d="m0 0 5 2 2 3-5 4-6-4z" fill="#995545"/>
<path transform="translate(1120,468)" d="m0 0 4 1 3 5-9 1-3-2z" fill="#9A5545"/>
<path transform="translate(983,464)" d="m0 0 5 2 2 3-3 3-5-1-3-4z" fill="#965545"/>
<path transform="translate(1118,443)" d="m0 0 5 2 2 3-4 4-4-2-2-4z" fill="#985545"/>
<path transform="translate(1119,455)" d="m0 0 4 1 2 2-1 4-4 2-4-4 2-4z" fill="#925546"/>
<path transform="translate(1132,443)" d="m0 0 5 4-2 5-2 1-5-4 2-4z" fill="#9A5545"/>
<path transform="translate(976,457)" d="m0 0 5 3v3l-3 3-4-2-2-4z" fill="#965545"/>
<path transform="translate(1113,448)" d="m0 0 5 4-1 4-4 2-4-5z" fill="#965545"/>
<path transform="translate(970,463)" d="m0 0 6 4-1 3-4 2-5-4 2-4z" fill="#955545"/>
<path transform="translate(1107,454)" d="m0 0 5 4-2 4-3 2-4-4 2-4z" fill="#975545"/>
<path transform="translate(1126,449)" d="m0 0 6 5-4 4-5-2-1-4z" fill="#965545"/>
<path transform="translate(1133,455)" d="m0 0 5 4-2 4-4 1-3-3 2-4z" fill="#975545"/>
<path transform="translate(1151,450)" d="m0 0 4 2 2 4-3 3-4-2-2-4z" fill="#9A5545"/>
<path transform="translate(1144,444)" d="m0 0 4 2 2 4-3 3-4-2-2-4z" fill="#975545"/>
<path transform="translate(961,457)" d="m0 0 4 1 3 3-3 4-5-2-2-3z" fill="#965545"/>
<path transform="translate(942,449)" d="m0 0 6 5-2 1v2l-4 1-4-4v-2z" fill="#965545"/>
<path transform="translate(928,448)" d="m0 0 4 2 2 4-3 3-5-2-1-4z" fill="#9A5545"/>
<path transform="translate(1139,462)" d="m0 0 5 2v4l-2 2-4-1-2-4z" fill="#965545"/>
<path transform="translate(1138,450)" d="m0 0 5 2v4l-2 2-4-1-2-4z" fill="#985545"/>
<path transform="translate(883,440)" d="m0 0 4 1v2h2l-2 4-4 1-3-2 1-4z" fill="#9A5545"/>
<path transform="translate(1114,461)" d="m0 0 5 3-2 4-4 1-4-4z" fill="#965545"/>
<path transform="translate(1145,456)" d="m0 0 4 2 2 3-3 4-4-2-2-4z" fill="#975545"/>
<path transform="translate(1156,445)" d="m0 0 5 1 2 4-3 3-4-2-2-4z" fill="#975545"/>
<path transform="translate(956,462)" d="m0 0 6 4-2 4h-4l-3-3v-2h2z" fill="#965545"/>
<path transform="translate(1171,457)" d="m0 0 4 2 2 3-5 4-4-4 2-4z" fill="#975545"/>
<path transform="translate(1170,445)" d="m0 0 4 2 2 4-2 2-4-1-3-2 2-4z" fill="#985545"/>
<path transform="translate(1147,468)" d="m0 0 5 5-2 2h-7v-4z" fill="#935546"/>
<path transform="translate(1126,462)" d="m0 0 4 1 2 3-4 4-4-2v-4z" fill="#9A5545"/>
<path transform="translate(1158,457)" d="m0 0 4 1 2 4-3 3-4-2-2-3z" fill="#9A5545"/>
<path transform="translate(1164,451)" d="m0 0 6 3-2 4-3 1-4-3 2-4z" fill="#975545"/>
<path transform="translate(890,446)" d="m0 0 4 2 2 3-3 3-4-1-2-4z" fill="#9A5545"/>
<path transform="translate(845,438)" d="m0 0h2v2l4 2-1 3-4 1-4-3 2-4z" fill="#965545"/>
<path transform="translate(1046,665)" d="m0 0 5 2 1 4-5 2-3-3 1-4z" fill="#645950"/>
<path transform="translate(1153,462)" d="m0 0 5 5-3 3-4-1-2-4z" fill="#975545"/>
<path transform="translate(820,458)" d="m0 0 5 5 2 4h-2l-1 3-4-4z" fill="#945546"/>
<path transform="translate(1177,451)" d="m0 0 4 2 2 3-3 3-5-2v-4z" fill="#975545"/>
<path transform="translate(915,448)" d="m0 0 4 2 2 3-3 3-5-2v-4z" fill="#9A5545"/>
<path transform="translate(1183,445)" d="m0 0 4 2 2 4-5 2-4-3 2-4z" fill="#985545"/>
<path transform="translate(1053,697)" d="m0 0 4 2 1 8-6-4-2-4z" fill="#645950"/>
<path transform="translate(943,462)" d="m0 0 5 3v3l-4 2-4-3 2-4z" fill="#905546"/>
<path transform="translate(949,456)" d="m0 0 6 4-3 4-4-1-2-4z" fill="#975545"/>
<path transform="translate(1202,439)" d="m0 0h2v2h2l2 4-5 2-4-3 2-4z" fill="#945546"/>
<path transform="translate(857,439)" d="m0 0 5 2v4l-3 2-5-5z" fill="#985545"/>
<path transform="translate(1033,540)" d="m0 0 4 3-2 5h-4l-1-4z" fill="#645950"/>
<path transform="translate(936,455)" d="m0 0 5 4-2 4h-3l-3-3 2-4z" fill="#9A5545"/>
<path transform="translate(909,467)" d="m0 0h5l2 2-1 4h-4l-3-3z" fill="#9A5545"/>
<path transform="translate(930,461)" d="m0 0 5 3-1 4-4 1-3-3 2-4z" fill="#945546"/>
<path transform="translate(922,455)" d="m0 0 4 1 1 4-3 3-5-5z" fill="#985545"/>
<path transform="translate(884,452)" d="m0 0 4 2 1 3-2 3-4-1-2-4z" fill="#955545"/>
<path transform="translate(1114,523)" d="m0 0h3l2 5-1 1h-8l2-4z" fill="#645950"/>
<path transform="translate(903,460)" d="m0 0 4 1 2 4-2 2-4-1-2-4z" fill="#985545"/>
<path transform="translate(1183,458)" d="m0 0 5 1 1 4-4 2-4-3z" fill="#975545"/>
<path transform="translate(876,446)" d="m0 0 4 1 2 4-4 3-4-5z" fill="#975545"/>
<path transform="translate(891,459)" d="m0 0 4 2v4l-4 1-3-3 1-3z" fill="#955545"/>
<path transform="translate(1287,397)" d="m0 0 8 2 1 6-4-2v-2l-5 1z" fill="#645950"/>
<path transform="translate(1024,814)" d="m0 0 4 1 1 3-3 3-4-2-1-3z" fill="#645950"/>
<path transform="translate(1047,789)" d="m0 0 4 2 1 4-1 2-5-2-1-3z" fill="#645950"/>
<path transform="translate(1039,534)" d="m0 0 4 2-3 6h-3l-2-4z" fill="#645950"/>
<path transform="translate(924,467)" d="m0 0 4 2 1 5h-5l-3-3v-2z" fill="#945546"/>
<path transform="translate(1165,463)" d="m0 0 4 2v4l-4 1-3-2 2-4z" fill="#985545"/>
<path transform="translate(897,453)" d="m0 0 3 1 2 4-2 2-5-1-1-4z" fill="#985545"/>
<path transform="translate(863,446)" d="m0 0 5 1 1 4-4 2-3-3z" fill="#975545"/>
<path transform="translate(839,444)" d="m0 0 4 2 1 4-4 2v-2l-3-1 1-4z" fill="#955545"/>
<path transform="translate(1220,407)" d="m0 0h2l-1 4-3 2 2 4 3 4-3 3-2-1 2-3-5-5 2-4z" fill="#433C34"/>
<path transform="translate(1090,523)" d="m0 0 4 2-1 4h-7l1-4z" fill="#645950"/>
<path transform="translate(1159,469)" d="m0 0 4 2v4h-6l-1-3z" fill="#935546"/>
<path transform="translate(828,468)" d="m0 0 4 2 2 4h-7l-2-3z" fill="#955545"/>
<path transform="translate(916,461)" d="m0 0 5 2v3l-4 2-3-3v-3z" fill="#9A5545"/>
<path transform="translate(1031,808)" d="m0 0 4 2-1 4-4 1-2-4z" fill="#645950"/>
<path transform="translate(1053,796)" d="m0 0 4 1 2 3-3 3-4-2-1-2z" fill="#645950"/>
<path transform="translate(1045,615)" d="m0 0 5 3-1 4h-4l-2-5z" fill="#645950"/>
<path transform="translate(937,468)" d="m0 0 4 2 2 3-4 2-5-3z" fill="#925546"/>
<path transform="translate(1179,463)" d="m0 0 4 3-2 4h-3l-3-4z" fill="#935546"/>
<path transform="translate(859,464)" d="m0 0 5 1 1 4-4 2-4-3z" fill="#955545"/>
<path transform="translate(865,458)" d="m0 0 5 2v3l-4 2-3-3z" fill="#985545"/>
<path transform="translate(909,454)" d="m0 0 4 2 1 4-4 1-3-2 1-4z" fill="#965545"/>
<path transform="translate(852,445)" d="m0 0 5 3-2 4-4-1-2-3z" fill="#965545"/>
<path transform="translate(1013,825)" d="m0 0 4 4-1 4-5-2v-4z" fill="#645950"/>
<path transform="translate(1046,627)" d="m0 0 3 1-1 7-4-2v-4z" fill="#645950"/>
<path transform="translate(1172,469)" d="m0 0 4 2 1 3-7 1-2-1v-2z" fill="#905547"/>
<path transform="translate(1216,465)" d="m0 0 4 2 2 3-4 2-4-3z" fill="#955546"/>
<path transform="translate(898,466)" d="m0 0 4 1v4l-3 2-4-5z" fill="#975646"/>
<path transform="translate(1191,464)" d="m0 0 4 2 1 3-5 2-3-4z" fill="#965545"/>
<path transform="translate(1197,458)" d="m0 0 4 2v4l-3 2-3-4v-2h2z" fill="#965545"/>
<path transform="translate(877,459)" d="m0 0 5 1v4l-4 1-3-4z" fill="#965545"/>
<path transform="translate(1209,446)" d="m0 0 4 2v4l-3 2-3-5z" fill="#915546"/>
<path transform="translate(1038,609)" d="m0 0 5 2-1 4h-4l-2-4z" fill="#645950"/>
<path transform="translate(1026,608)" d="m0 0 4 2 1 4-4 1-3-3z" fill="#645950"/>
<path transform="translate(991,470)" d="m0 0 6 3v2h-9v-3z" fill="#8A5648"/>
<path transform="translate(951,468)" d="m0 0 5 4v2h-7l-2-3z" fill="#965545"/>
<path transform="translate(885,465)" d="m0 0 4 2 1 3h-2v2l-4-1v-2l-2-1z" fill="#945546"/>
<path transform="translate(859,451)" d="m0 0 5 5-4 3-4-5z" fill="#915546"/>
<path transform="translate(1024,825)" d="m0 0 5 5-2 3-4-2v-4z" fill="#645950"/>
<path transform="translate(1047,691)" d="m0 0 4 2v4l-4 1-1-1v-5z" fill="#645950"/>
<path transform="translate(1046,640)" d="m0 0 3 1v6l-3 1-3-5z" fill="#645950"/>
<path transform="translate(1039,621)" d="m0 0h2l3 5-4 3-3-3z" fill="#645950"/>
<path transform="translate(1204,464)" d="m0 0 5 5-5 2-3-2 2-4z" fill="#965545"/>
<path transform="translate(847,463)" d="m0 0 4 1 1 4-4 2v-2l-3-1z" fill="#915546"/>
<path transform="translate(871,452)" d="m0 0 4 2v4h-4l-2-4z" fill="#9A5545"/>
<path transform="translate(833,450)" d="m0 0 4 2v4h-4l-2-4z" fill="#9A5545"/>
<path transform="translate(1196,446)" d="m0 0 4 2v4h-4l-2-4z" fill="#985545"/>
<path transform="translate(1215,440)" d="m0 0 4 2 1 4-4 1-3-3z" fill="#965545"/>
<path transform="translate(1036,826)" d="m0 0 4 1v4l-4 1-2-4z" fill="#645950"/>
<path transform="translate(1019,820)" d="m0 0 4 4-3 3-4-2 1-4z" fill="#645950"/>
<path transform="translate(1054,808)" d="m0 0 4 2 1 2-2 3-4-2v-4z" fill="#645950"/>
<path transform="translate(1039,634)" d="m0 0 5 2-2 5-4-2-1-2z" fill="#645950"/>
<path transform="translate(1190,452)" d="m0 0 5 2-2 4h-3l-2-4z" fill="#9A5545"/>
<path transform="translate(1018,831)" d="m0 0 4 2 1 4-6-1v-4z" fill="#645950"/>
<path transform="translate(1036,814)" d="m0 0 4 1-1 5h-3l-2-4z" fill="#645950"/>
<path transform="translate(1032,615)" d="m0 0 4 1 1 4-4 2-2-3z" fill="#645950"/>
<path transform="translate(1054,582)" d="m0 0 4 2-1 4h-4l-1-4z" fill="#645950"/>
<path transform="translate(873,464)" d="m0 0 4 3-2 4-4-2-1-2z" fill="#9A5545"/>
<path transform="translate(1203,452)" d="m0 0 5 4-2 3-5-2v-3z" fill="#945546"/>
<path transform="translate(1042,820)" d="m0 0 4 2 1 3-5 1-2-4z" fill="#645950"/>
<path transform="translate(1030,820)" d="m0 0 4 2v3l-3 2-3-3z" fill="#645950"/>
<path transform="translate(1042,796)" d="m0 0 4 2v3l-3 2-3-2z" fill="#645950"/>
<path transform="translate(1060,790)" d="m0 0 4 1-1 5-4-1v-4z" fill="#645950"/>
<path transform="translate(1054,784)" d="m0 0 4 2v3l-3 2-3-3z" fill="#645950"/>
<path transform="translate(1185,470)" d="m0 0 4 2 1 2-8 1v-3z" fill="#865648"/>
<path transform="translate(828,456)" d="m0 0h2l2 5-1 2-6-3v-2z" fill="#925546"/>
<path transform="translate(846,451)" d="m0 0 4 2 1 3-4 2v-2l-3-1z" fill="#9A5545"/>
<path transform="translate(1048,814)" d="m0 0 4 2v3l-4 1-2-4z" fill="#645950"/>
<path transform="translate(1048,802)" d="m0 0 4 2-1 4h-3l-2-4z" fill="#645950"/>
<path transform="translate(1033,628)" d="m0 0 4 2v4l-5-1v-4z" fill="#645950"/>
<path transform="translate(842,469)" d="m0 0 3 1v2h2v2h-7v-4z" fill="#965545"/>
<path transform="translate(1210,459)" d="m0 0 4 2-2 4h-3v-2l-2-1z" fill="#945546"/>
<path transform="translate(852,458)" d="m0 0 4 1 1 3-1 2-4-1-1-4z" fill="#985545"/>
<path transform="translate(1042,808)" d="m0 0 4 2-1 4-4-1v-4z" fill="#645950"/>
<path transform="translate(1038,802)" d="m0 0 3 3-2 4-4-2 2-4z" fill="#645950"/>
<path transform="translate(1035,712)" d="m0 0 4 2 1 3 3 2-1 3-8-7z" fill="#433C34"/>
<path transform="translate(963,469)" d="m0 0 6 4v1h-8v-3z" fill="#975545"/>
<path transform="translate(1216,453)" d="m0 0 4 2v3h-2l-1 2-3-3z" fill="#935546"/>
</svg>
